<?xml version="1.0" encoding="UTF-8" standalone="no"?>
<!-- Generator: Adobe Illustrator 23.0.1, SVG Export Plug-In . SVG Version: 6.00 Build 0)  -->

<svg
   version="1.1"
   id="Layer_1"
   x="0px"
   y="0px"
   viewBox="0 0 580 141.052"
   xml:space="preserve"
   sodipodi:docname="laravel-logotype-rgb-white-1.svg"
   width="580"
   height="141.052"
   inkscape:version="1.2.2 (b0a8486541, 2022-12-01)"
   xmlns:inkscape="http://www.inkscape.org/namespaces/inkscape"
   xmlns:sodipodi="http://sodipodi.sourceforge.net/DTD/sodipodi-0.dtd"
   xmlns="http://www.w3.org/2000/svg"
   xmlns:svg="http://www.w3.org/2000/svg"><defs
   id="defs21" /><sodipodi:namedview
   id="namedview19"
   pagecolor="#ffffff"
   bordercolor="#000000"
   borderopacity="0.25"
   inkscape:showpageshadow="2"
   inkscape:pageopacity="0.0"
   inkscape:pagecheckerboard="0"
   inkscape:deskcolor="#d1d1d1"
   showgrid="false"
   inkscape:zoom="1.3202694"
   inkscape:cx="290.09232"
   inkscape:cy="71.576302"
   inkscape:window-width="1920"
   inkscape:window-height="992"
   inkscape:window-x="0"
   inkscape:window-y="0"
   inkscape:window-maximized="1"
   inkscape:current-layer="Layer_1" />
<g
   id="g16"
   transform="translate(-60.019,-79.625999)">
	<polygon
   style="fill:#ffffff"
   points="60.019,218.301 125.592,218.301 125.592,197.897 82.8,197.897 82.8,79.626 60.019,79.626 "
   id="polygon2" />
	<path
   style="fill:#ffffff"
   d="m 206.02,138.464 c -2.906,-4.622 -7.033,-8.253 -12.382,-10.896 -5.348,-2.641 -10.731,-3.963 -16.145,-3.963 -7.003,0 -13.407,1.288 -19.217,3.863 -5.813,2.575 -10.797,6.111 -14.957,10.6 -4.16,4.491 -7.397,9.675 -9.707,15.55 -2.313,5.879 -3.467,12.055 -3.467,18.524 0,6.606 1.154,12.811 3.467,18.621 2.309,5.814 5.546,10.964 9.707,15.453 4.16,4.491 9.145,8.023 14.957,10.598 5.81,2.575 12.214,3.863 19.217,3.863 5.414,0 10.797,-1.321 16.145,-3.962 5.349,-2.64 9.476,-6.272 12.382,-10.896 v 12.48 h 21.594 V 125.981 H 206.02 Z m -1.981,44.97 c -1.321,3.567 -3.17,6.671 -5.546,9.312 -2.378,2.643 -5.251,4.755 -8.618,6.34 -3.368,1.585 -7.102,2.377 -11.194,2.377 -4.095,0 -7.793,-0.792 -11.094,-2.377 -3.302,-1.585 -6.141,-3.697 -8.518,-6.34 -2.378,-2.641 -4.195,-5.745 -5.448,-9.312 -1.258,-3.566 -1.882,-7.33 -1.882,-11.291 0,-3.963 0.624,-7.727 1.882,-11.293 1.253,-3.566 3.07,-6.668 5.448,-9.311 2.377,-2.64 5.215,-4.755 8.518,-6.34 3.301,-1.585 6.999,-2.377 11.094,-2.377 4.093,0 7.826,0.792 11.194,2.377 3.367,1.585 6.24,3.699 8.618,6.34 2.377,2.643 4.225,5.745 5.546,9.311 1.319,3.566 1.981,7.33 1.981,11.293 0,3.961 -0.662,7.725 -1.981,11.291 z"
   id="path4" />
	<path
   style="fill:#ffffff"
   d="m 381.542,138.464 c -2.906,-4.622 -7.033,-8.253 -12.382,-10.896 -5.348,-2.641 -10.731,-3.963 -16.145,-3.963 -7.003,0 -13.407,1.288 -19.217,3.863 -5.813,2.575 -10.797,6.111 -14.957,10.6 -4.16,4.491 -7.397,9.675 -9.707,15.55 -2.313,5.879 -3.467,12.055 -3.467,18.524 0,6.606 1.154,12.811 3.467,18.621 2.309,5.814 5.546,10.964 9.707,15.453 4.16,4.491 9.145,8.023 14.957,10.598 5.81,2.575 12.214,3.863 19.217,3.863 5.414,0 10.797,-1.321 16.145,-3.962 5.349,-2.64 9.476,-6.272 12.382,-10.896 v 12.48 h 21.594 v -92.318 h -21.594 z m -1.98,44.97 c -1.321,3.567 -3.17,6.671 -5.546,9.312 -2.378,2.643 -5.251,4.755 -8.618,6.34 -3.368,1.585 -7.102,2.377 -11.194,2.377 -4.095,0 -7.793,-0.792 -11.094,-2.377 -3.302,-1.585 -6.141,-3.697 -8.518,-6.34 -2.378,-2.641 -4.195,-5.745 -5.448,-9.312 -1.258,-3.566 -1.882,-7.33 -1.882,-11.291 0,-3.963 0.624,-7.727 1.882,-11.293 1.253,-3.566 3.07,-6.668 5.448,-9.311 2.377,-2.64 5.215,-4.755 8.518,-6.34 3.301,-1.585 6.999,-2.377 11.094,-2.377 4.093,0 7.826,0.792 11.194,2.377 3.367,1.585 6.24,3.699 8.618,6.34 2.377,2.643 4.225,5.745 5.546,9.311 1.319,3.566 1.981,7.33 1.981,11.293 -0.001,3.961 -0.663,7.725 -1.981,11.291 z"
   id="path6" />
	<rect
   x="618.42603"
   y="79.625999"
   style="fill:#ffffff"
   width="21.593"
   height="138.675"
   id="rect8" />
	<polygon
   style="fill:#ffffff"
   points="266.244,147.23 303.291,147.23 303.291,125.984 244.652,125.984 244.652,218.301 266.244,218.301 "
   id="polygon10" />
	<polygon
   style="fill:#ffffff"
   points="435.428,125.984 413.558,125.984 449,218.301 476.138,218.301 511.579,125.984 489.709,125.984 462.569,196.678 "
   id="polygon12" />
	<path
   style="fill:#ffffff"
   d="m 558.675,123.61 c -26.442,0 -47.372,21.73 -47.372,48.534 0,29.63 20.256,48.534 50.139,48.534 16.724,0 27.402,-6.395 40.448,-20.321 L 587.302,189.07 c -0.008,0.011 -11.011,14.457 -27.439,14.457 -19.095,0 -27.135,-15.395 -27.135,-23.36 h 71.637 c 3.763,-30.499 -16.288,-56.557 -45.69,-56.557 z m -25.89,40.511 c 0.166,-1.777 2.653,-23.36 25.719,-23.36 23.066,0 25.869,21.58 26.03,23.36 z"
   id="path14" />
</g>
</svg>
